# xmcd
#
# Track frame offsets:
#  150
#  15249
#  31242
#  57450
#
# Disc length: 1420 seconds
#
# Revision: 0
# Processed by: cddbd v1.5.1PL2 Copyright (c) Steve Scherf et al.
# Submitted via: Collectorz.com_Music_Collector 6.11
#
DISCID=25058a04
DTITLE=The Streets - when you wasn't famous
DYEAR=2006
DGENRE=
TTITLE0=when you wasn't famous - Album Version
TTITLE1=when you wasn't famous - Professor Green Version
TTITLE2=when you wasn't famous - Doctor And Bearman Version
TTITLE3=Data track
EXTD=
EXTT0=
EXTT1=
EXTT2=
EXTT3=
PLAYORDER=
